<svg width="24" height="22" viewBox="0 0 24 22" fill="none" xmlns="http://www.w3.org/2000/svg">
<path d="M22.908 20.1267C21.456 17.6556 19.1888 15.7302 16.4712 14.6603C17.8226 13.6775 18.8209 12.3072 19.3246 10.7437C19.8282 9.18011 19.8118 7.5025 19.2776 5.94848C18.7434 4.39446 17.7186 3.04282 16.3482 2.08502C14.9778 1.12722 13.3314 0.611816 11.6421 0.611816C9.95285 0.611816 8.30642 1.12722 6.93603 2.08502C5.56564 3.04282 4.54076 4.39446 4.00657 5.94848C3.47238 7.5025 3.45597 9.18011 3.95965 10.7437C4.46333 12.3072 5.46157 13.6775 6.81297 14.6603C4.09544 15.7302 1.82821 17.6556 0.376242 20.1267C0.286273 20.267 0.226309 20.4234 0.199915 20.5866C0.173521 20.7498 0.181236 20.9165 0.222601 21.0768C0.263965 21.237 0.338136 21.3876 0.440702 21.5195C0.543269 21.6514 0.672138 21.7619 0.819648 21.8446C0.967158 21.9272 1.1303 21.9803 1.29937 22.0006C1.46844 22.0208 1.63999 22.0079 1.80382 21.9627C1.96765 21.9174 2.12042 21.8406 2.25304 21.7369C2.38567 21.6332 2.49544 21.5047 2.57583 21.3591C4.49477 18.1427 7.88364 16.2244 11.6421 16.2244C15.4006 16.2244 18.7894 18.1437 20.7084 21.3591C20.8826 21.6307 21.1589 21.826 21.479 21.9037C21.799 21.9814 22.1376 21.9353 22.4233 21.7753C22.7089 21.6153 22.9192 21.3538 23.0097 21.0461C23.1001 20.7385 23.0636 20.4088 22.908 20.1267ZM6.1352 8.41964C6.1352 7.36347 6.45817 6.33102 7.06328 5.45284C7.66838 4.57467 8.52845 3.89022 9.5347 3.48604C10.541 3.08186 11.6482 2.97611 12.7164 3.18216C13.7847 3.38821 14.7659 3.8968 15.5361 4.64363C16.3062 5.39045 16.8307 6.34196 17.0432 7.37784C17.2557 8.41371 17.1466 9.48742 16.7298 10.4632C16.313 11.439 15.6072 12.273 14.7016 12.8598C13.796 13.4465 12.7313 13.7597 11.6421 13.7597C10.1821 13.7581 8.78237 13.195 7.74999 12.1938C6.71761 11.1927 6.13688 9.83541 6.1352 8.41964Z" fill="white"/>
</svg>
